{"title":"We Are The World 25 For Haiti [2010] 720p mp4","uid":5365410,"size":111743985,"categoryP":"video","categoryS":"music_videos","magnet":"?xt=urn:btih:a9c33fad1634a9a8f441d66ad13b6ba2858d0f77&amp;dn=We+Are+The+World+25+For+Haiti+%5B2010%5D+720p+mp4&amp;tr=udp%3A%2F%2Ftracker.openbittorrent.com%3A80&amp;tr=udp%3A%2F%2Fopen.demonii.com%3A1337&amp;tr=udp%3A%2F%2Ftracker.coppersurfer.tk%3A6969&amp;tr=udp%3A%2F%2Fexodus.desync.com%3A6969","seeders":1,"leechers":0,"uploader":"garryh22","files":-1,"time":1266244836,"description":"Artists include Miley Cyrus, Keri Hilson and Best New Artist Grammy winner Zac Brown, Barbra Streisand; Carlos Santana; Natalie Cole; BeBe Winans; the members of Heart; Freda Payne; Harry Connick Jr.; Earth, Wind &amp; Fire; the Beach Boys' Brian Wilson and Al Jardine; Tony Bennett; film score composer A.R. Rahman; &quot;American Idol&quot; judge Randy Jackson; Patti Austin; Celine Dion,Gladys Knight, Mary Mary; Jamie Foxx, T-Pain, Kanye West, Bizzy Bone, Kid Cudi, LL Cool J, Snoop Dogg, Drake, Mann, Nipsey Hussle, Busta Rhymes, Swizz Beatz, and others. Alo featuring Michal Jackson from the original.\n\nFormat : MPEG-4\nFormat profile : Base Media\nCodec ID : isom\nFile size : 107 MiB\nDuration : 6min 50s\nOverall bit rate : 2 175 Kbps\n\nVideo\nID : 2\nFormat : AVC\nFormat/Info : Advanced Video Codec\nFormat profile : &lt;a class=&quot;__cf_email__&quot; href=&quot;/cdn-cgi/l/email-protection&quot; data-cfemail=&quot;d890b1bfb09894ebf6e9&quot;&gt;[email&amp;#160;protected]&lt;/a&gt;&lt;script cf-hash='f9e31' type=&quot;text/javascript&quot;&gt;\n/* &lt;![CDATA[ */!function(){try{var t=&quot;currentScript&quot;in document?document.currentScript:function(){for(var t=document.getElementsByTagName(&quot;script&quot;),e=t.length;e--;)if(t[e].getAttribute(&quot;cf-hash&quot;))return t[e]}();if(t&amp;&amp;t.previousSibling){var e,r,n,i,c=t.previousSibling,a=c.getAttribute(&quot;data-cfemail&quot;);if(a){for(e=&quot;&quot;,r=parseInt(a.substr(0,2),16),n=2;a.length-n;n+=2)i=parseInt(a.substr(n,2),16)^r,e+=String.fromCharCode(i);e=document.createTextNode(e),c.parentNode.replaceChild(e,c)}}}catch(u){}}();/* ]]&gt; */&lt;/script&gt;\nFormat settings, CABAC : Yes\nFormat settings, ReFrames : 3 frames\nCodec ID : avc1\nCodec ID/Info : Advanced Video Coding\nDuration : 6mn 50s\nBit rate mode : Variable\nBit rate : 2 011 Kbps\nMaximum bit rate : 3 915 Kbps\nWidth : 1 280 pixels\nHeight : 720 pixels\nDisplay aspect ratio : 16:9\nFrame rate mode : Constant\nFrame rate : 30.000 fps\nResolution : 24 bits\nColorimetry : 4:2:0\nScan type : Progressive\nBits/(Pixel*Frame) : 0.073\nStream size : 100 MiB (94%)\n\nAudio\nFormat : AAC\nFormat/Info : Advanced Audio Codec\nDuration : 6mn 50s\nBit rate mode : Variable\nBit rate : 125 Kbps\nMaximum bit rate : 202 Kbps\nChannel(s) : 2 channels\nChannel positions : L R\nSampling rate : 44.1 KHz\nResolution : 16 bits\nStream size : 6.12 MiB (6%)\n","torrent":{"xt":"urn:btih:a9c33fad1634a9a8f441d66ad13b6ba2858d0f77","amp;dn":"We+Are+The+World+25+For+Haiti+%5B2010%5D+720p+mp4","amp;tr":["udp%3A%2F%2Ftracker.openbittorrent.com%3A80","udp%3A%2F%2Fopen.demonii.com%3A1337","udp%3A%2F%2Ftracker.coppersurfer.tk%3A6969","udp%3A%2F%2Fexodus.desync.com%3A6969"],"infoHash":"a9c33fad1634a9a8f441d66ad13b6ba2858d0f77","infoHashBuffer":{"type":"Buffer","data":[169,195,63,173,22,52,169,168,244,65,214,106,209,59,107,162,133,141,15,119]},"announce":[],"urlList":[]}}